HIERARCHY
ROOT joint_Root
{
	OFFSET 0.0 0.0 0.0
	CHANNELS 6 Xposition Yposition Zposition Zrotation Xrotation Yrotation 
	JOINT Hips
	{
		OFFSET 4.5925 91.4895 -427.239
		CHANNELS 6 Xposition Yposition Zposition Zrotation Xrotation Yrotation 
		JOINT Spine
		{
			OFFSET 15.7357 0.0 0.0
			CHANNELS 6 Xposition Yposition Zposition Zrotation Xrotation Yrotation 
			JOINT Chest
			{
				OFFSET 8.98455 -0.406207 0.0
				CHANNELS 6 Xposition Yposition Zposition Zrotation Xrotation Yrotation 
				JOINT Neck
				{
					OFFSET 16.3773 0.0 0.0
					CHANNELS 6 Xposition Yposition Zposition Zrotation Xrotation Yrotation 
					JOINT Head
					{
						OFFSET 6.45672 0.0 0.0
						CHANNELS 6 Xposition Yposition Zposition Zrotation Xrotation Yrotation 
						End Site
						{
							OFFSET 0.0 0.0 0.0
						}
					}
				}
				JOINT Shoulder_L
				{
					OFFSET 12.9942 -0.242716 4.98039
					CHANNELS 6 Xposition Yposition Zposition Zrotation Xrotation Yrotation 
					JOINT UpperArm_L
					{
						OFFSET 5.34809 0.0 0.0
						CHANNELS 6 Xposition Yposition Zposition Zrotation Xrotation Yrotation 
						JOINT LowerArm_L
						{
							OFFSET 24.3286 1.87007e-05 0.0
							CHANNELS 6 Xposition Yposition Zposition Zrotation Xrotation Yrotation 
							JOINT Hand_L
							{
								OFFSET 22.2916 0.0 0.0
								CHANNELS 6 Xposition Yposition Zposition Zrotation Xrotation Yrotation 
								End Site
								{
									OFFSET 0.0 0.0 0.0
								}
							}
						}
					}
				}
				JOINT Shoulder_R
				{
					OFFSET 12.9945 -0.242716 -4.98039
					CHANNELS 6 Xposition Yposition Zposition Zrotation Xrotation Yrotation 
					JOINT UpperArm_R
					{
						OFFSET -5.34813 0.0 0.0
						CHANNELS 6 Xposition Yposition Zposition Zrotation Xrotation Yrotation 
						JOINT LowerArm_R
						{
							OFFSET -24.3289 0.000322201 0.0
							CHANNELS 6 Xposition Yposition Zposition Zrotation Xrotation Yrotation 
							JOINT Hand_R
							{
								OFFSET -22.2915 -0.000108084 0.0
								CHANNELS 6 Xposition Yposition Zposition Zrotation Xrotation Yrotation 
								End Site
								{
									OFFSET 0.0 0.0 0.0
								}
							}
						}
					}
				}
			}
		}
		JOINT UpperLeg_L
		{
			OFFSET -2.19248 -6.46944 0.0
			CHANNELS 6 Xposition Yposition Zposition Zrotation Xrotation Yrotation 
			JOINT LowerLeg_L
			{
				OFFSET 39.0811 0.0 -1.23785e-05
				CHANNELS 6 Xposition Yposition Zposition Zrotation Xrotation Yrotation 
				JOINT Foot_L
				{
					OFFSET 40.9854 0.0 -1.26872e-05
					CHANNELS 6 Xposition Yposition Zposition Zrotation Xrotation Yrotation 
					JOINT Toes_L
					{
						OFFSET 11.7543 0.0 0.0
						CHANNELS 6 Xposition Yposition Zposition Zrotation Xrotation Yrotation 
						End Site
						{
							OFFSET 0.0 0.0 0.0
						}
					}
				}
			}
		}
		JOINT UpperLeg_R
		{
			OFFSET -2.19251 6.46944 0.0
			CHANNELS 6 Xposition Yposition Zposition Zrotation Xrotation Yrotation 
			JOINT LowerLeg_R
			{
				OFFSET -39.0811 -0.00228153 -0.0401928
				CHANNELS 6 Xposition Yposition Zposition Zrotation Xrotation Yrotation 
				JOINT Foot_R
				{
					OFFSET -40.9854 0.0 0.0
					CHANNELS 6 Xposition Yposition Zposition Zrotation Xrotation Yrotation 
					JOINT Toes_R
					{
						OFFSET -11.7543 0.0 0.0
						CHANNELS 6 Xposition Yposition Zposition Zrotation Xrotation Yrotation 
						End Site
						{
							OFFSET 0.0 0.0 0.0
						}
					}
				}
			}
		}
	}
}
MOTION
Frames:	4
Frame Time:	0.0333333
0.000000 0.000000 0.000000 0.000000 0.000000 -0.000000 -209.554000 91.494000 196.089000 85.977700 77.510400 0.720472 15.735700 0.000005 -0.000001 124.129000 81.443200 -125.134000 8.984550 -0.406207 -0.000000 6.555800 9.583470 -2.560830 16.377300 -0.000001 -0.000001 -2.296230 0.590644 -1.097740 6.456720 -0.000001 -0.000000 -6.236750 -3.742750 2.075550 12.994200 -0.242716 4.980390 -85.647600 -10.372600 -67.084900 5.348090 -0.000007 -0.000001 -67.410200 29.011300 30.264600 24.328600 0.000019 0.000005 9.659210 -0.450825 -92.645800 22.291600 -0.000001 0.000005 1.560190 5.496470 -6.392210 12.994500 -0.242716 -4.980390 89.818000 1.309760 -82.088800 -5.348130 -0.000001 -0.000004 -50.426500 46.215100 -35.359600 -24.328900 0.000322 -0.000009 -8.857340 3.977990 -113.998000 -22.291500 -0.000108 -0.000004 20.083800 5.553570 -8.875970 -2.192480 -6.469440 -0.000000 177.113000 -8.912700 -27.648500 39.081100 -0.000007 -0.000012 -0.001991 0.005003 21.703900 40.985400 -0.000006 -0.000013 2.072300 -2.038500 -62.069900 11.754300 -0.000000 0.000003 -0.006906 -0.078863 -19.787200 -2.192510 6.469440 -0.000001 173.250000 17.922100 -173.536000 -39.081100 -0.002282 -0.040193 0.014440 -0.026180 23.021400 -40.985400 0.000008 0.000006 10.930700 27.780300 -64.232900 -11.754300 -0.000006 -0.000006 -0.116006 -0.482647 -36.802400
0.000000 0.000000 0.000000 0.000000 0.000000 -0.000000 -205.853000 88.770300 196.487000 87.087800 76.542500 -0.285202 15.735700 0.000005 -0.000001 121.279000 81.428800 -122.717000 8.984550 -0.406207 -0.000000 7.062920 8.878960 -3.427380 16.377300 -0.000001 -0.000001 -2.788500 0.821325 -1.456320 6.456720 -0.000001 -0.000000 -7.319140 -3.728700 2.393470 12.994200 -0.242716 4.980390 -86.588900 -7.939500 -66.658000 5.348090 -0.000007 -0.000001 -65.723700 25.512000 28.081800 24.328600 0.000019 0.000005 5.730930 0.040958 -89.585800 22.291600 -0.000001 0.000005 1.727710 5.491120 -6.180510 12.994500 -0.242716 -4.980390 89.560600 3.047530 -81.792400 -5.348130 -0.000001 -0.000004 -50.048700 47.022700 -33.387400 -24.328900 0.000322 -0.000009 -9.367520 3.502540 -110.321000 -22.291500 -0.000108 -0.000004 19.190200 5.583390 -10.404700 -2.192480 -6.469440 -0.000000 174.961000 -13.167800 -34.586600 39.081100 -0.000007 -0.000012 0.162844 -0.253655 32.700200 40.985400 -0.000006 -0.000013 5.286150 -5.088740 -59.168000 11.754300 -0.000000 0.000003 -0.006309 -0.073623 -19.573400 -2.192510 6.469440 -0.000001 171.861000 15.754100 -171.559000 -39.081100 -0.002282 -0.040193 0.002300 0.002070 26.005800 -40.985400 0.000008 0.000006 12.765400 26.307700 -71.833800 -11.754300 -0.000006 -0.000006 -0.119963 -0.491608 -37.199500
0.000000 0.000000 0.000000 0.000000 0.000000 -0.000000 -201.510000 86.414000 196.986000 84.918700 75.164600 1.908900 15.735700 0.000005 -0.000001 118.376000 81.761300 -119.949000 8.984550 -0.406207 -0.000000 6.890130 7.817400 -3.617420 16.377300 -0.000001 -0.000001 -3.365330 1.425550 -0.681313 6.456720 -0.000001 -0.000000 -7.739330 -2.644730 1.661690 12.994200 -0.242716 4.980390 -89.196800 -1.896120 -67.045600 5.348090 -0.000007 -0.000001 -61.456900 20.799400 26.621200 24.328600 0.000019 0.000005 4.459510 0.224589 -87.123800 22.291600 -0.000001 0.000005 2.547880 5.487740 -6.045870 12.994500 -0.242716 -4.980390 89.067000 6.865630 -82.241000 -5.348130 -0.000001 -0.000004 -51.633200 47.356000 -25.934700 -24.328900 0.000322 -0.000009 -9.208060 2.381590 -104.374000 -22.291500 -0.000108 -0.000004 16.855900 5.611650 -12.075200 -2.192480 -6.469440 -0.000000 174.980000 -17.382400 -38.888600 39.081100 -0.000007 -0.000012 -0.037811 0.038071 44.806100 40.985400 -0.000006 -0.000013 5.430870 -3.411270 -61.015300 11.754300 -0.000000 0.000003 -0.004870 -0.060209 -19.026500 -2.192510 6.469440 -0.000001 170.985000 14.005000 -170.456000 -39.081100 -0.002282 -0.040193 0.005024 -0.002942 30.351300 -40.985400 0.000008 0.000006 14.267000 26.220500 -75.682300 -11.754300 -0.000006 -0.000006 -0.153789 -0.562164 -40.372200
0.000000 0.000000 0.000000 0.000000 0.000000 -0.000000 -196.401000 85.032600 197.393000 85.538400 75.382600 2.400910 15.735700 0.000005 -0.000001 112.430000 81.845000 -114.431000 8.984550 -0.406207 -0.000000 7.455020 6.205400 -4.404430 16.377300 -0.000001 -0.000001 -4.284400 1.625410 0.372543 6.456720 -0.000001 -0.000000 -7.734330 -1.684020 2.852460 12.994200 -0.242716 4.980390 -91.662700 4.203650 -68.396300 5.348090 -0.000007 -0.000001 -58.249400 15.594100 21.774000 24.328600 0.000019 0.000005 9.171860 0.699799 -85.681400 22.291600 -0.000001 0.000005 2.783680 5.495620 -6.357130 12.994500 -0.242716 -4.980390 88.517900 10.566700 -81.969900 -5.348130 -0.000001 -0.000004 -57.697800 44.847200 -13.309100 -24.328900 0.000322 -0.000009 -9.658490 0.314422 -91.854000 -22.291500 -0.000108 -0.000004 16.233000 5.635170 -13.727400 -2.192480 -6.469440 -0.000000 175.653000 -17.489800 -37.855600 39.081100 -0.000007 -0.000012 -0.279350 0.214379 52.497400 40.985400 -0.000006 -0.000013 4.837260 -3.175800 -68.418900 11.754300 -0.000000 0.000003 -0.000003 -0.000040 -16.579100 -2.192510 6.469440 -0.000001 169.525000 13.406400 -171.089000 -39.081100 -0.002282 -0.040193 0.054322 -0.063469 38.805800 -40.985400 0.000008 0.000006 15.441300 26.201700 -71.061300 -11.754300 -0.000006 -0.000006 -0.315076 -0.808776 -52.341200
